<!-- icon666.com - MILLIONS vector ICONS FREE --><svg version="1.1" id="Capa_1" xmlns="http://www.w3.org/2000/svg" xmlns:xlink="http://www.w3.org/1999/xlink" x="0px" y="0px" viewBox="0 0 512 512" style="enable-background:new 0 0 512 512;" xml:space="preserve"><g><g><path d="M503.1,132.909C483.754,77.991,434.652,37.18,380.92,31.355c-24.078-2.609-48.227,1.996-69.83,13.325 c-20.887,10.952-39.38,27.888-55.09,50.422c-15.709-22.535-34.201-39.47-55.09-50.422c-21.602-11.328-45.748-15.935-69.83-13.325 C77.347,37.18,28.247,77.991,8.9,132.909c-10.449,29.663-11.724,61.922-3.686,93.292c9.067,35.387,29.429,69.095,60.523,100.19 c95.962,95.962,185.324,153.231,186.216,153.798c2.442,1.556,5.651,1.555,8.094,0c0.594-0.377,60.175-38.511,133.803-104.286 c3.105-2.773,3.372-7.538,0.599-10.644c-2.772-3.104-7.539-3.375-10.643-0.599c-61.726,55.141-113.326,90.532-127.804,100.155 C237.649,452.609,159.6,398.93,76.399,315.729C21.922,261.254,2.503,196.444,23.12,137.918 c17.459-49.562,61.498-86.363,109.586-91.576c45.754-4.963,87.264,18.641,116.886,66.452c2.895,4.674,9.92,4.672,12.816,0 c29.623-47.811,71.128-71.418,116.886-66.452c48.087,5.214,92.126,42.015,109.585,91.576 c20.618,58.525,1.198,123.336-53.279,177.811c-7.389,7.39-15.023,14.831-22.689,22.116c-3.017,2.868-3.139,7.64-0.271,10.658 c2.868,3.017,7.641,3.138,10.658,0.271c7.758-7.373,15.484-14.904,22.965-22.384c31.094-31.095,51.455-64.803,60.523-100.19 C514.824,194.831,513.549,162.572,503.1,132.909z"></path></g></g><g><g><path d="M360.527,165.611h-24.122c-0.174,0-0.347,0.006-0.519,0.018c-10.532,0.274-19.044,8.932-19.08,19.515 c-0.002,0.294-0.397,29.801-13.818,55.247c-6.847,12.983-17.519,20.372-27.39,24.573v-92.317h12.563 c4.164,0,7.538-3.374,7.538-7.538v-24.122c0-4.164-3.374-7.538-7.538-7.538h-64.324c-4.163,0-7.538,3.374-7.538,7.538v24.122 c0,4.164,3.375,7.538,7.538,7.538h12.563v92.27c-9.892-4.217-20.573-11.602-27.39-24.526 c-13.422-25.446-13.815-54.951-13.818-55.204c-0.013-10.793-8.804-19.576-19.599-19.576h-24.122c-4.163,0-7.538,3.374-7.538,7.538 v24.122c0,4.164,3.375,7.538,7.538,7.538h6.128c2.097,15.028,6.702,34.839,16.74,53.87c16.136,30.592,43.753,42.722,62.061,47.509 v66.468h-20.604c-4.163,0-7.538,3.374-7.538,7.538v24.122c0,4.164,3.375,7.538,7.538,7.538h80.405 c4.164,0,7.538-3.374,7.538-7.538v-24.122c0-4.164-3.374-7.538-7.538-7.538H275.6v-66.468 c18.306-4.789,45.924-16.919,62.06-47.509c10.037-19.029,14.643-38.841,16.739-53.87h6.128c4.164,0,7.538-3.374,7.538-7.538 v-24.122C368.065,168.985,364.691,165.611,360.527,165.611z M352.989,189.732h-5.269c-3.865,0-7.103,2.923-7.499,6.767 c-1.192,11.598-4.84,34.184-15.896,55.144c-15.134,28.691-42.687,38.109-57.764,41.171c-3.514,0.713-6.038,3.801-6.038,7.387 v79.991c0,4.165,3.375,7.539,7.538,7.539h20.604v9.046h-65.329v-9.046h20.604c4.163,0,7.538-3.374,7.538-7.538v-79.991 c0-3.585-2.525-6.675-6.038-7.387c-15.077-3.061-42.63-12.48-57.763-41.171c-11.057-20.962-14.706-43.547-15.897-55.144 c-0.395-3.844-3.634-6.767-7.499-6.767h-5.269v-9.046h16.584c2.492,0,4.52,2.026,4.523,4.553 c0.008,1.351,0.374,33.396,15.558,62.183c11.639,22.064,31.611,31.382,46.316,35.313c2.262,0.607,4.68,0.124,6.537-1.303 c1.858-1.427,2.948-3.636,2.948-5.979V165.108c0-4.164-3.375-7.538-7.538-7.538h-12.563v-9.046h49.248v9.046h-12.563 c-4.164,0-7.538,3.374-7.538,7.538v110.38c0,2.34,1.086,4.547,2.942,5.974c1.855,1.428,4.268,1.912,6.53,1.312 c14.683-3.896,34.641-13.192,46.33-35.351c15.278-28.964,15.557-61.881,15.558-62.21c0.009-2.492,2.037-4.517,4.523-4.517 c0.137,0,0.272-0.004,0.406-0.011h16.178V189.732z"></path></g></g></svg>